# xmcd
#
# Track frame offsets:
#	150
#	22580
#	40797
#	59737
#	75385
#	94875
#	109042
#	124180
#	143385
#	157315
#	173460
#	190472
#	206040
#	224160
#	236595
#	254670
#	267200
#	278847
#	295652
#	309215
#	325120
#
# Disc length: 4490 seconds
#
# Revision: 1
# Processed by: cddbd v1.5.2PL0 Copyright (c) Steve Scherf et al.
# Submitted via: audiograbber 1.83.01
#
DISCID=2f118815
DTITLE=Márcio Greyck - 21 Grandes Sucessos
DYEAR=1900
DGENRE=
TTITLE0=O Mais Importante É o Verdadeiro Amor
TTITLE1=Aparências
TTITLE2=O Apartamento
TTITLE3=Impossível Acreditar Que Perdi Voce
TTITLE4=Não Sei Onde Te Encontrar
TTITLE5=Como ÉTriste Dizer Boa Noite
TTITLE6=Infinito
TTITLE7=O Travesseiro
TTITLE8=Eu Só Quero Amor
TTITLE9=Eu Preciso de Voce
TTITLE10=Vivendo Por Viver
TTITLE11=Honestamente
TTITLE12=Onde AndaTeu Sorriso
TTITLE13=Se Voce Me Entendesse
TTITLE14=Páginas
TTITLE15=Onde Está O Céu Azul
TTITLE16=Quando Me Lembram Voce
TTITLE17=Foi Voce
TTITLE18=Tudo O Que Eu Preciso É Ter o Seu Amor
TTITLE19=Prelúdio Pra Ninar Gente Grande
TTITLE20=Nada Realmente Existe do Que Eu Quis
EXTD=
EXTT0=
EXTT1=
EXTT2=
EXTT3=
EXTT4=
EXTT5=
EXTT6=
EXTT7=
EXTT8=
EXTT9=
EXTT10=
EXTT11=
EXTT12=
EXTT13=
EXTT14=
EXTT15=
EXTT16=
EXTT17=
EXTT18=
EXTT19=
EXTT20=
PLAYORDER=
